<?xml version="1.0" standalone="no"?>
<!DOCTYPE svg PUBLIC "-//W3C//DTD SVG 20010904//EN"
 "http://www.w3.org/TR/2001/REC-SVG-20010904/DTD/svg10.dtd">
<svg version="1.0" xmlns="http://www.w3.org/2000/svg"
 width="512.000000pt" height="512.000000pt" viewBox="0 0 512.000000 512.000000"
 preserveAspectRatio="xMidYMid meet">
<metadata>
Created by potrace 1.14, written by Peter Selinger 2001-2017
</metadata>
<g transform="translate(0.000000,512.000000) scale(0.100000,-0.100000)"
fill="#000000" stroke="none">
<path d="M560 3952 c1 -21 8 -50 54 -217 129 -460 236 -690 396 -845 99 -96
97 -95 188 -140 188 -94 373 -107 571 -40 112 37 203 93 297 182 48 46 104
136 104 168 0 14 -147 124 -275 205 -86 54 -457 280 -475 288 -8 4 -29 16 -47
26 -157 96 -589 306 -750 366 -56 21 -63 21 -63 7z"/>
<path d="M4540 3963 c-8 -3 -46 -19 -85 -35 -431 -185 -901 -449 -1403 -790
-103 -70 -104 -73 -57 -153 69 -119 228 -236 377 -279 88 -26 97 -28 203 -31
328 -13 587 168 755 528 79 168 213 596 234 745 3 23 1 24 -24 15z"/>
<path d="M2493 3079 c-22 -11 -46 -32 -54 -47 -23 -47 -202 -345 -294 -492
-159 -253 -457 -753 -486 -815 -106 -229 -93 -513 36 -790 54 -115 200 -324
215 -308 5 4 3 31 -5 60 -40 153 -40 355 1 493 23 81 94 225 118 241 17 12
116 14 554 14 l533 0 49 -100 c75 -153 89 -218 89 -394 -1 -97 -6 -169 -16
-207 -8 -33 -17 -72 -20 -89 l-4 -30 41 44 c131 139 231 342 275 556 14 65 13
271 0 334 -32 148 -74 226 -428 811 -38 63 -77 129 -87 145 -9 17 -57 95 -106
175 -49 80 -96 157 -104 171 -102 177 -128 219 -144 229 -33 21 -120 21 -163
-1z m137 -797 c39 -69 172 -297 229 -394 l22 -36 -314 0 -315 0 45 81 c25 45
59 105 76 132 16 28 38 64 47 80 34 59 119 197 130 210 19 22 34 8 80 -73z"/>
</g>
</svg>
